# xmcd CD database file
#
# Track frame offsets:
#	150
#	17702
#	32896
#	46084
#	64520
#	76816
#	92127
#	106835
#	119621
#	139807
#	154901
#	167021
#	180173
#
# Disc length: 2555 seconds
#
# Revision: 3
# Processed by: cddbd v1.5.2PL0 Copyright (c) Steve Scherf et al.
# Submitted via: CDex 1.79
#
DISCID=9b09f90d
DTITLE=Sierra Hull - Secrets
DYEAR=2008
DGENRE=Bluegrass
TTITLE0=Secrets
TTITLE1=From Now On
TTITLE2=Two Winding Rails
TTITLE3=Smashville (instrumental)
TTITLE4=Everybody's Somebody's Fool
TTITLE5=Pretend
TTITLE6=If You Can Tame My Heart
TTITLE7=That's All I Can Say
TTITLE8=The Hard Way
TTITLE9=Hullarious (instrumental)
TTITLE10=Absence Makes The Heart Grow Fonder
TTITLE11=Only My Heart
TTITLE12=Trust And Obey
EXTD=YEAR: 2008
EXTT0=
EXTT1=
EXTT2=
EXTT3=
EXTT4=
EXTT5=
EXTT6=
EXTT7=
EXTT8=
EXTT9=
EXTT10=
EXTT11=
EXTT12=
PLAYORDER=
